<?xml version="1.0" encoding="UTF-8"?><svg xmlns="http://www.w3.org/2000/svg" viewBox="0 0 500 500"><g id="a"/><g id="b"><g id="c"><g id="d"><g id="e"><g><path d="M250,500C112.15,500,0,387.85,0,250S112.15,0,250,0s250,112.15,250,250-112.15,250-250,250Zm0-490.24C117.53,9.76,9.76,117.53,9.76,250s107.77,240.24,240.24,240.24,240.24-107.77,240.24-240.24S382.47,9.76,250,9.76Z"/><g><path d="M76.02,187.63c-2.48,.67-4.03,1.96-5.01,5.06-.88,2.79-.1,4.7,2.01,5.37,2.37,.77,4.08-.88,6.4-4.59,3.61-5.89,6.92-8,12.34-6.25,5.01,1.6,7.85,6.2,5.52,13.37-1.7,5.37-4.34,8.62-8.72,10.17l-1.76-5.78c2.58-.98,4.18-2.53,5.16-5.68,1.14-3.56,0-5.21-1.91-5.83-2.12-.67-3.72,.21-6.61,4.8-3.51,5.52-7.33,7.59-12.39,5.99-4.8-1.55-7.59-5.94-5.27-13.16,1.55-4.85,4.34-8,8.42-9.14l1.86,5.68h-.05Z"/><path d="M90.84,140.03l4.75,2.84-4.54,7.59,22.72,13.68-3.36,5.58-22.72-13.68-4.54,7.54-4.75-2.84,12.44-20.7Z"/><path d="M136.11,136.83c-5.11,5.11-11.77,5.58-18.69-1.34l-3.2-3.2c-7.02-6.97-6.45-13.58-1.34-18.69,5.11-5.11,11.72-5.68,18.74,1.29l3.2,3.2c6.92,6.92,6.45,13.58,1.34,18.74h-.05Zm-14.09-5.94c4.34,4.34,7.54,4.75,10.22,2.07,2.63-2.68,2.27-5.94-2.07-10.22l-3.2-3.2c-4.34-4.34-7.59-4.7-10.27-2.01s-2.27,5.89,2.07,10.22l3.2,3.2,.05-.05Z"/><path d="M173.18,108.39l-11.41-7.85-4.49,2.68,6.45,10.84-5.58,3.36-16.42-27.57,9.86-5.89c6.35-3.77,11.98-3.3,15.33,2.27,2.22,3.72,1.96,7.18-.31,10.17l12.7,8.31-6.14,3.67Zm-14.92-12.13c3.3-1.96,4.8-3.82,3.1-6.71s-4.08-2.53-7.43-.57l-3.77,2.22,4.34,7.28,3.77-2.22Z"/><path d="M211.48,76.12l.83,2.79c2.79,9.4-.36,14.87-7.33,16.93-6.92,2.01-13.01-.72-15.8-10.12l-1.14-3.92c-2.94-9.96,.72-15.49,7.64-17.5,6.45-1.91,11.41,.62,14.2,6.61l-5.99,1.76c-1.34-2.63-3.56-4.03-6.66-3.1-3.61,1.08-4.8,4.08-3.1,9.96l1.29,4.39c1.7,5.89,4.39,7.8,8,6.71,3.51-1.03,4.28-3.67,3.56-7.43l-5.16,1.5-1.55-5.27,11.2-3.3Z"/><path d="M229.24,89.75l9.91-32.47,6.2-.26,12.39,31.6-6.92,.26-2.17-5.99-10.74,.41-1.7,6.14-6.97,.26v.05Zm10.17-11.98l7.23-.26-4.08-11.15-3.2,11.41h.05Z"/><path d="M297.96,62.65l-1.03,5.42-8.67-1.65-4.96,26.07-6.4-1.24,4.96-26.07-8.67-1.65,1.03-5.42,23.75,4.54Z"/><path d="M302.29,97.08l23.18-24.83,5.68,2.53-2.79,33.87-6.35-2.79,.67-6.35-9.81-4.34-4.23,4.8-6.4-2.84,.05-.05Zm14.4-6.3l6.66,2.94,1.24-11.82-7.9,8.88Z"/><path d="M379.89,106.68l-20.03,25.04-4.23-3.41,2.63-23.28-12.39,15.49-4.8-3.87,20.03-25.04,4.23,3.36-2.79,23.54,12.6-15.69,4.8,3.87h-.05Z"/><path d="M432.55,220.98c1.86-1.76,2.58-3.61,1.96-6.81-.57-2.89-2.17-4.18-4.34-3.77-2.48,.46-3.15,2.68-3.41,7.12-.36,6.87-2.27,10.33-7.8,11.41-5.16,.98-9.86-1.7-11.31-9.09-1.08-5.52-.31-9.65,2.79-13.11l4.34,4.23c-1.76,2.12-2.43,4.23-1.81,7.43,.72,3.67,2.53,4.54,4.44,4.18,2.17-.41,3.15-2.01,3.51-7.38,.41-6.5,2.79-10.22,8-11.2,4.96-.98,9.5,1.55,10.94,9.03,.98,5.01,0,9.14-2.99,12.03l-4.34-4.13v.05Z"/><path d="M442.41,269.82l-5.52-.21,.36-8.83-26.48-1.03,.26-6.5,26.54,1.08,.36-8.83,5.52,.21-.98,24.16-.05-.05Z"/><path d="M431.62,316.6l-18.28-5.42c-9.09-2.68-11.41-8.83-9.4-15.64s7.28-10.69,16.31-8l18.33,5.42-1.86,6.25-18.33-5.42c-5.27-1.55-8.11-.52-9.24,3.36-1.14,3.82,.67,6.25,5.94,7.8l18.33,5.42-1.86,6.25h.05Z"/><path d="M393.47,323.98l27.41,16.68-5.94,9.76c-3.77,6.2-9.55,8.62-18.33,3.3l-3.56-2.17c-8.72-5.27-9.29-11.56-5.52-17.76l5.89-9.76,.05-.05Zm2.99,21.94l3.56,2.17c4.75,2.89,7.95,3.1,10.22-.62l2.53-4.18-18.02-10.94-2.53,4.18c-2.22,3.72-.52,6.5,4.23,9.34v.05Z"/><path d="M364.92,362.8l4.49-4.75,23.28,21.99-4.44,4.75-23.28-21.99h-.05Z"/><path d="M341.58,381.9c5.94-4.08,12.6-3.41,18.17,4.65l2.58,3.77c5.63,8.16,3.92,14.56-2.01,18.64-5.94,4.13-12.55,3.51-18.22-4.65l-2.58-3.77c-5.58-8.05-3.92-14.56,2.07-18.69v.05Zm12.8,8.36c-3.51-5.06-6.61-5.99-9.71-3.87-3.1,2.17-3.3,5.42,.15,10.43l2.58,3.77c3.51,5.06,6.61,5.99,9.71,3.82,3.1-2.17,3.25-5.37-.21-10.43l-2.58-3.72h.05Z"/></g><g><path d="M177.21,347.47l-25.86-2.48,.52-5.47,15.59-15.18c2.89-2.79,4.44-5.21,4.7-7.95,.31-3.41-2.01-5.32-4.75-5.58-2.84-.26-5.16,1.29-5.73,4.59l-7.54-.72c.67-7.23,7.12-11.56,14.35-10.89,7.54,.72,12.75,6.5,12.08,13.42-.52,5.52-4.59,9.5-7.54,12.39l-9.6,9.34,14.46,1.39-.67,7.18v-.05Z"/><path d="M230.69,352.58l-25.86-2.48,.52-5.47,15.59-15.18c2.89-2.79,4.44-5.21,4.7-7.95,.31-3.41-2.01-5.32-4.75-5.58-2.84-.26-5.16,1.29-5.73,4.59l-7.54-.72c.67-7.23,7.12-11.56,14.35-10.89,7.54,.72,12.75,6.5,12.08,13.42-.52,5.52-4.59,9.5-7.54,12.39l-9.6,9.34,14.46,1.39-.67,7.18v-.05Z"/></g></g></g></g></g></g></svg>